<svg width="240" height="281" viewBox="0 0 240 281" fill="none" xmlns="http://www.w3.org/2000/svg">
<mask id="path-1-inside-1_149_4425" fill="white">
<path d="M0.484375 40.3955C0.484375 18.3042 18.393 0.395508 40.4844 0.395508H199.754C221.845 0.395508 239.754 18.3041 239.754 40.3955V240.474C239.754 262.565 221.845 280.474 199.754 280.474H40.4843C18.393 280.474 0.484375 262.565 0.484375 240.474V40.3955Z"/>
</mask>
<path d="M0.484375 40.3955C0.484375 18.3042 18.393 0.395508 40.4844 0.395508H199.754C221.845 0.395508 239.754 18.3041 239.754 40.3955V240.474C239.754 262.565 221.845 280.474 199.754 280.474H40.4843C18.393 280.474 0.484375 262.565 0.484375 240.474V40.3955Z" fill="#070D15"/>
<path d="M40.4844 1.39551H199.754V-0.604492H40.4844V1.39551ZM238.754 40.3955V240.474H240.754V40.3955H238.754ZM199.754 279.474H40.4843V281.474H199.754V279.474ZM1.48438 240.474V40.3955H-0.515625V240.474H1.48438ZM40.4843 279.474C18.9452 279.474 1.48438 262.013 1.48438 240.474H-0.515625C-0.515625 263.118 17.8407 281.474 40.4843 281.474V279.474ZM238.754 240.474C238.754 262.013 221.293 279.474 199.754 279.474V281.474C222.397 281.474 240.754 263.118 240.754 240.474H238.754ZM199.754 1.39551C221.293 1.39551 238.754 18.8564 238.754 40.3955H240.754C240.754 17.7518 222.397 -0.604492 199.754 -0.604492V1.39551ZM40.4844 -0.604492C17.8407 -0.604492 -0.515625 17.7519 -0.515625 40.3955H1.48438C1.48438 18.8564 18.9453 1.39551 40.4844 1.39551V-0.604492Z" fill="url(#paint0_linear_149_4425)" mask="url(#path-1-inside-1_149_4425)"/>
<defs>
<linearGradient id="paint0_linear_149_4425" x1="-30.7042" y1="-64.5701" x2="236.322" y2="280.328" gradientUnits="userSpaceOnUse">
<stop stop-color="white" stop-opacity="0.46"/>
<stop offset="0.510417" stop-opacity="0"/>
<stop offset="1" stop-color="white" stop-opacity="0.26"/>
</linearGradient>
</defs>
</svg>
