<svg width="53" height="53" viewBox="0 0 53 53" fill="none" xmlns="http://www.w3.org/2000/svg">
<path fill-rule="evenodd" clip-rule="evenodd" d="M0 8.62109C0 4.20282 3.58172 0.621094 7.99999 0.621094H16.6016C21.0199 0.621094 24.6016 4.20282 24.6016 8.62109V19.1082C24.6016 19.7029 24.8378 20.2732 25.2584 20.6937C25.6789 21.1142 26.2492 21.3505 26.8439 21.3505H44.5332C48.9515 21.3505 52.5332 24.9322 52.5332 29.3505V44.9811C52.5332 49.3994 48.9515 52.9811 44.5332 52.9811H28.9026C24.4843 52.9811 20.9026 49.3994 20.9026 44.9811V29.9947C20.9026 28.7291 20.3998 27.5153 19.5049 26.6204C18.61 25.7255 17.3962 25.2227 16.1306 25.2227H8C3.58172 25.2227 0 21.641 0 17.2227V8.62109Z" fill="#DDFD54"/>
</svg>
